HIERARCHY
ROOT Pelvis
{
	OFFSET 0.000000 0.000000 0.000000
	CHANNELS 6 Xposition Yposition Zposition Xrotation Yrotation Zrotation
	JOINT LeftUpLeg_virtual
	{
		OFFSET 0.000000 0.000000 0.000000
		CHANNELS 3 Xrotation Yrotation Zrotation
		JOINT LeftUpLeg
		{
			OFFSET 18.735201 -5.666702 -4.541200
			CHANNELS 3 Xrotation Yrotation Zrotation
			JOINT LeftLeg
			{
				OFFSET -0.021200 -31.938179 0.493100
				CHANNELS 3 Xrotation Yrotation Zrotation
				JOINT LeftFoot
				{
					OFFSET 0.021200 -31.938179 -4.336299
					CHANNELS 3 Xrotation Yrotation Zrotation
					JOINT LeftToeBase
					{
						OFFSET 0.943001 -26.722000 15.023500
						CHANNELS 3 Xrotation Yrotation Zrotation
						End Site
						{
							OFFSET 0 0 0
						}
					}
				}
			}
		}
	}
	JOINT RightUpLeg_virtual
	{
		OFFSET 0.000000 0.000000 0.000000
		CHANNELS 3 Xrotation Yrotation Zrotation
		JOINT RightUpLeg
		{
			OFFSET -18.735201 -5.666702 -4.541200
			CHANNELS 3 Xrotation Yrotation Zrotation
			JOINT RightLeg
			{
				OFFSET 0.018946 -31.938133 0.493100
				CHANNELS 3 Xrotation Yrotation Zrotation
				JOINT RightFoot
				{
					OFFSET -0.018946 -31.938126 -4.336299
					CHANNELS 3 Xrotation Yrotation Zrotation
					JOINT RightToeBase
					{
						OFFSET -0.943001 -26.722004 15.023500
						CHANNELS 3 Xrotation Yrotation Zrotation
						End Site
						{
							OFFSET 0 0 0
						}
					}
				}
			}
		}
	}
	JOINT Hips_virtual
	{
		OFFSET 0.000000 0.000000 0.000000
		CHANNELS 3 Xrotation Yrotation Zrotation
		JOINT Hips
		{
			OFFSET -0.000000 -0.000000 -0.000000
			CHANNELS 3 Xrotation Yrotation Zrotation
			JOINT Spine
			{
				OFFSET 0.000000 10.199997 -0.299500
				CHANNELS 3 Xrotation Yrotation Zrotation
				JOINT Spine1
				{
					OFFSET 0.000000 11.900002 -1.516600
					CHANNELS 3 Xrotation Yrotation Zrotation
					JOINT Spine2
					{
						OFFSET 0.000000 13.600006 -2.842500
						CHANNELS 3 Xrotation Yrotation Zrotation
						JOINT Neck_virtual
						{
							OFFSET 0.000000 0.000000 0.000000
							CHANNELS 3 Xrotation Yrotation Zrotation
							JOINT Neck
							{
								OFFSET 0.000000 9.624100 -2.890100
								CHANNELS 3 Xrotation Yrotation Zrotation
								JOINT Head
								{
									OFFSET 0.000000 14.068802 -1.351900
									CHANNELS 3 Xrotation Yrotation Zrotation
									End Site
									{
										OFFSET 0 0 0
									}
								}
							}
						}
						JOINT LeftShoulder_virtual
						{
							OFFSET 0.000000 0.000000 0.000000
							CHANNELS 3 Xrotation Yrotation Zrotation
							JOINT LeftShoulder
							{
								OFFSET 15.263000 10.923401 -0.547700
								CHANNELS 3 Xrotation Yrotation Zrotation
								JOINT LeftArm
								{
									OFFSET 25.438599 -2.830597 -13.032500
									CHANNELS 3 Xrotation Yrotation Zrotation
									JOINT LeftForeArm
									{
										OFFSET 29.960503 0.000000 0.000000
										CHANNELS 3 Xrotation Yrotation Zrotation
										JOINT LeftHand
										{
											OFFSET 27.849251 0.000000 0.000000
											CHANNELS 3 Xrotation Yrotation Zrotation
											End Site
											{
												OFFSET 0 0 0
											}
										}
									}
								}
							}
						}
						JOINT RightShoulder_virtual
						{
							OFFSET 0.000000 0.000000 0.000000
							CHANNELS 3 Xrotation Yrotation Zrotation
							JOINT RightShoulder
							{
								OFFSET -15.263000 10.923401 -0.547700
								CHANNELS 3 Xrotation Yrotation Zrotation
								JOINT RightArm
								{
									OFFSET -25.438599 -2.830597 -13.032500
									CHANNELS 3 Xrotation Yrotation Zrotation
									JOINT RightForeArm
									{
										OFFSET -29.960503 0.000000 0.000000
										CHANNELS 3 Xrotation Yrotation Zrotation
										JOINT RightHand
										{
											OFFSET -27.849251 0.000000 0.000000
											CHANNELS 3 Xrotation Yrotation Zrotation
											End Site
											{
												OFFSET 0 0 0
											}
										}
									}
								}
							}
						}
					}
				}
			}
		}
	}
}
MOTION
Frames: 9
Frame Time: 0.03333333
-0.957409 80.897408 4.432430 0.000000 0.000000 0.000000 4.100584 -35.720301 5.711653 -40.272971 -0.557207 20.178044 46.305404 -10.048735 -2.536545 -9.640456 -7.392671 -17.177021 0.000000 0.000000 0.000000 10.507094 -38.950062 1.447829 -21.614663 -15.700016 -21.340687 45.137069 -0.159060 -0.625674 -13.641015 -3.568655 10.345307 0.000000 0.000000 0.000000 -0.811296 -23.460621 3.093994 -1.981285 -9.240289 -0.889968 8.542979 8.113019 -4.239479 3.355305 4.214894 -2.046924 0.000000 0.000000 0.000000 4.459918 3.886116 -1.689998 0.466024 2.653272 -0.451369 0.000000 0.000000 0.000000 2.952187 3.648372 -1.271242 1.334712 6.307805 -5.044378 -25.901957 -28.735145 -48.884255 4.770688 -79.246587 2.556737 0.000000 0.000000 0.000000 1.650197 3.480511 -2.374840 1.974899 15.494448 -4.514903 -40.079359 30.268147 53.520369 -154.428801 76.261275 153.127705 0.000000 0.000000 0.000000 
-0.610937 81.125717 4.349798 0.000000 0.000000 0.000000 4.429558 -36.597038 5.870335 -40.052195 -0.727830 20.164902 45.776563 -9.130202 -3.252498 -9.967516 -6.143364 -17.486555 0.000000 0.000000 0.000000 10.111785 -39.544203 1.296152 -22.335477 -15.708236 -21.628105 45.424593 0.910011 -1.390171 -13.416191 -2.254400 10.032146 0.000000 0.000000 0.000000 -1.200557 -25.194591 3.091527 -1.710074 -10.191915 -0.577166 8.889930 7.770486 -4.106352 3.504239 4.040572 -1.999183 0.000000 0.000000 0.000000 4.666468 3.914667 -1.721369 0.528870 2.868859 -0.520844 0.000000 0.000000 0.000000 3.141317 3.538084 -1.123086 1.460942 7.085577 -4.701174 -25.718488 -26.818903 -46.420069 4.077655 -76.513760 2.693489 0.000000 0.000000 0.000000 1.951155 3.207301 -2.336189 2.259653 14.476069 -4.185251 -40.297112 30.583634 56.029299 -160.299185 72.154542 159.392682 0.000000 0.000000 0.000000 
-0.251215 81.291519 4.309681 0.000000 0.000000 0.000000 4.689023 -37.560587 6.049347 -39.954291 -0.947559 20.180231 45.441778 -8.252571 -3.963279 -10.209744 -4.938462 -17.830318 0.000000 0.000000 0.000000 9.722440 -40.069721 1.112405 -22.975600 -15.704878 -21.909351 45.787174 1.982844 -2.160551 -13.140615 -0.916169 9.715549 0.000000 0.000000 0.000000 -1.518483 -27.032910 3.080292 -1.337753 -11.441531 -0.422127 9.185376 7.262557 -3.980153 3.641155 3.777195 -1.961742 0.000000 0.000000 0.000000 4.776126 3.888530 -1.766629 0.540238 3.056156 -0.594606 0.000000 0.000000 0.000000 3.297901 3.340061 -0.970409 1.550542 7.606236 -4.255015 -26.019163 -24.965853 -43.926521 3.025221 -73.776521 2.580346 0.000000 0.000000 0.000000 2.243420 2.881504 -2.306134 2.555022 13.398433 -3.991835 -40.461371 31.163414 58.170044 -163.875431 68.214670 163.315383 0.000000 0.000000 0.000000 
0.063962 81.389191 4.225370 0.000000 0.000000 0.000000 4.933942 -38.725124 6.219254 -39.889097 -1.218533 20.157618 45.262871 -7.466363 -4.624845 -10.386834 -3.850231 -18.175692 0.000000 0.000000 0.000000 9.563529 -40.624083 1.337340 -23.413957 -15.832112 -21.817675 46.351013 3.009341 -2.733023 -12.717253 0.302538 9.655235 0.000000 0.000000 0.000000 -1.727725 -28.803041 3.076718 -0.798773 -12.703200 -0.374409 9.421416 6.593400 -3.831679 3.757341 3.422224 -1.912427 0.000000 0.000000 0.000000 4.783592 3.795337 -1.797555 0.502146 3.202859 -0.654818 0.000000 0.000000 0.000000 3.394171 3.038805 -0.815475 1.580669 7.771938 -3.707474 -26.763623 -23.344536 -41.494837 1.801251 -71.130300 2.340115 0.000000 0.000000 0.000000 2.478634 2.489845 -2.273271 2.808389 12.202099 -3.893456 -40.153104 31.487346 59.612443 -165.846979 65.106852 165.603182 0.000000 0.000000 0.000000 
0.336897 81.412399 4.089371 0.000000 0.000000 0.000000 5.119593 -40.080745 6.363247 -39.886146 -1.549540 20.086371 45.184720 -6.820632 -5.184725 -10.542433 -2.946142 -18.476842 0.000000 0.000000 0.000000 9.406338 -41.313656 1.511358 -23.817256 -15.997905 -21.786941 46.907806 3.852438 -3.223121 -12.327616 1.325717 9.588016 0.000000 0.000000 0.000000 -1.821273 -30.377649 3.081215 -0.012969 -13.768099 -0.475613 9.553526 5.775462 -3.667096 3.818342 2.984666 -1.848760 0.000000 0.000000 0.000000 4.691713 3.616419 -1.812737 0.421879 3.292691 -0.698871 0.000000 0.000000 0.000000 3.438915 2.642091 -0.662652 1.568419 7.561999 -3.076406 -27.612469 -22.106956 -39.143596 0.730448 -68.588671 2.179954 0.000000 0.000000 0.000000 2.652650 2.050031 -2.254941 3.024182 10.946562 -3.966240 -39.380870 31.907587 60.097892 -167.259626 62.867117 167.235816 0.000000 0.000000 0.000000 
0.598563 81.354118 3.897308 0.000000 0.000000 0.000000 5.330140 -41.538502 6.485305 -39.840046 -1.893324 19.958726 45.301093 -6.333940 -5.580447 -10.593108 -2.280713 -18.670481 0.000000 0.000000 0.000000 9.036120 -41.991764 1.450215 -24.383907 -16.088424 -21.916615 47.456718 4.433911 -3.639732 -11.957230 2.089207 9.442261 0.000000 0.000000 0.000000 -1.820404 -31.709826 3.071071 0.947031 -14.658371 -0.796861 9.602988 4.860346 -3.478528 3.835303 2.493777 -1.764265 0.000000 0.000000 0.000000 4.519477 3.356188 -1.797753 0.313491 3.319787 -0.716740 0.000000 0.000000 0.000000 3.473087 2.186637 -0.504496 1.562230 7.042378 -2.333871 -28.109696 -21.302279 -36.748235 0.112168 -66.066323 2.308728 0.000000 0.000000 0.000000 2.764024 1.586898 -2.235604 3.190940 9.695041 -4.139072 -38.247010 32.513661 59.363046 -168.500644 61.590363 168.504523 0.000000 0.000000 0.000000 
0.821223 81.254211 3.759706 0.000000 0.000000 0.000000 5.591030 -42.972340 6.617141 -39.696756 -2.229460 19.804434 45.607297 -6.040511 -5.792328 -10.518084 -1.896937 -18.759955 0.000000 0.000000 0.000000 8.726960 -42.672713 1.326529 -24.824767 -16.190115 -22.108540 47.984500 4.735436 -3.964503 -11.634222 2.556710 9.229082 0.000000 0.000000 0.000000 -1.788665 -33.080208 2.992118 1.819626 -16.159227 -1.441867 9.590175 3.810112 -3.278555 3.819007 1.934868 -1.666593 0.000000 0.000000 0.000000 4.223283 3.020257 -1.797732 0.160460 3.280636 -0.729488 0.000000 0.000000 0.000000 3.507614 1.710150 -0.357192 1.588967 6.312510 -1.552073 -28.133633 -20.792378 -34.405435 -0.125038 -63.544310 2.609868 0.000000 0.000000 0.000000 2.812145 1.097856 -2.188596 3.293543 8.396715 -4.271253 -36.840425 33.356885 58.572799 -169.434945 60.652688 169.622434 0.000000 0.000000 0.000000 
0.973941 81.160332 3.726534 0.000000 0.000000 0.000000 5.906164 -44.295136 6.751095 -39.440354 -2.531693 19.625883 46.025394 -5.941399 -5.782765 -10.356218 -1.809586 -18.699277 0.000000 0.000000 0.000000 8.540497 -43.335672 1.206599 -25.073558 -16.321102 -22.306442 48.380467 4.759427 -4.154866 -11.420484 2.699281 8.997884 0.000000 0.000000 0.000000 -1.770043 -34.027104 2.877073 2.503676 -17.336087 -2.115246 9.498771 2.734696 -3.157263 3.753434 1.371385 -1.602448 0.000000 0.000000 0.000000 3.859346 2.641435 -1.798705 -0.010242 3.183871 -0.725592 0.000000 0.000000 0.000000 3.551171 1.299673 -0.270810 1.669214 5.650874 -0.932828 -27.525988 -20.116360 -32.305555 -0.101767 -60.839213 2.903128 0.000000 0.000000 0.000000 2.815293 0.618834 -2.123883 3.344321 7.148677 -4.386673 -35.171055 34.539112 57.799697 -170.149137 59.991723 170.699705 0.000000 0.000000 0.000000 
1.077606 81.002968 3.773022 0.000000 0.000000 0.000000 6.241668 -45.282153 6.929292 -39.098226 -2.774400 19.504990 46.456184 -5.969978 -5.508014 -10.136351 -1.985331 -18.390052 0.000000 0.000000 0.000000 8.436592 -43.894798 1.071932 -25.170907 -16.447268 -22.505641 48.587766 4.526705 -4.218654 -11.350783 2.536032 8.746407 0.000000 0.000000 0.000000 -1.732069 -34.668070 2.767484 3.155242 -18.559851 -2.467640 9.413561 1.711261 -3.126983 3.696340 0.844335 -1.577859 0.000000 0.000000 0.000000 3.513587 2.265050 -1.806448 -0.154661 3.048757 -0.705686 0.000000 0.000000 0.000000 3.594008 0.967688 -0.243963 1.783038 5.043977 -0.476754 -26.601352 -19.662854 -30.944370 0.088736 -58.705387 3.048069 0.000000 0.000000 0.000000 2.797842 0.204127 -2.034220 3.362425 6.118966 -4.429277 -33.323093 36.055428 57.208903 -170.617347 59.571640 171.740489 0.000000 0.000000 0.000000 
